Coordinates
version=1
nRows=10
nColumns=28
inDegrees=yes

Units are S.I. units (second, meters, Newtons, ...)
Angles are in degrees.

endheader
time	pelvis_tilt	pelvis_list	pelvis_rotation	pelvis_tx	pelvis_ty	pelvis_tz	hip_flexion_r	hip_adduction_r	hip_rotation_r	knee_angle_r	ankle_angle_r	subtalar_angle_r	mtp_angle_r	hip_flexion_l	hip_adduction_l	hip_rotation_l	knee_angle_l	socket_flexion	socket_adduction	socket_rotation	socket_tx	socket_ty	socket_tz	foot_flex	lumbar_extension	lumbar_bending	lumbar_rotation
      0.31250000	      3.98902556	     -1.00190919	     -8.18606530	     -0.34194689	      1.02381523	      0.31274712	     16.59241910	     -0.76867480	     -1.69160649	    -67.00478514	     -4.01325013	    -15.47200691	     24.09992389	      4.84330847	      3.19350504	      6.64280264	    -24.47220047	    -11.14540049	      0.00000000	      0.00000000	      0.00000000	      0.00000000	      0.00000000	      0.37709809	    -15.36291699	     -2.52258921	      9.28087686
      0.31666667	      4.02734067	     -0.99473916	     -8.10863920	     -0.33723580	      1.02409915	      0.31255547	     17.13210952	     -0.70073146	     -1.72796273	    -66.65302547	     -3.93530232	    -15.46324137	     24.10916867	      4.49783095	      3.25124174	      6.66597290	    -24.44219469	    -11.15489513	      0.00000000	      0.00000000	      0.00000000	      0.00000000	      0.00000000	      0.44637572	    -15.46577294	     -2.53970896	      9.26457860
      0.32083333	      4.03679263	     -1.02006095	     -8.01640233	     -0.33205725	      1.02443756	      0.31251623	     17.59327789	     -0.57576620	     -1.77529818	    -66.17471059	     -3.64605337	    -15.40589165	     24.16152765	      4.04887729	      3.25973906	      6.80684050	    -24.19847417	    -11.12404056	      0.00000000	      0.00000000	      0.00000000	      0.00000000	      0.00000000	      0.63002932	    -15.44375257	     -2.51127938	      9.17721142
      0.32500000	      4.28422794	     -1.17723964	     -7.65765043	     -0.32713872	      1.02509918	      0.31182656	     17.72829537	     -0.50786658	     -2.17311178	    -65.61979257	     -2.94151547	    -14.55061879	     24.33051103	      3.43353519	      3.20118170	      7.16071063	    -24.11802803	    -11.13000020	      0.00000000	      0.00000000	      0.00000000	      0.00000000	      0.00000000	      0.70812897	    -15.80321941	     -2.23760065	      8.60017684
      0.32916667	      4.29998489	     -1.18978872	     -7.56543794	     -0.32219443	      1.02537050	      0.31171448	     18.19529808	     -0.41771193	     -2.23588750	    -65.09984259	     -2.73598800	    -14.52535363	     24.35010834	      3.04497191	      3.22359527	      7.23386611	    -23.97714755	    -11.11952520	      0.00000000	      0.00000000	      0.00000000	      0.00000000	      0.00000000	      0.82878097	    -15.83783721	     -2.21699952	      8.54824497
      0.33333333	      4.42466128	     -1.30920920	     -7.31687863	     -0.31728989	      1.02581607	      0.31137230	     18.45934015	     -0.28950897	     -2.48867918	    -64.46733297	     -2.32867186	    -14.21998421	     24.37874673	      2.56214592	      3.15589901	      7.46051060	    -23.90376742	    -11.12445813	      0.00000000	      0.00000000	      0.00000000	      0.00000000	      0.00000000	      0.94716773	    -16.03476247	     -2.05880006	      8.24850067
      0.33750000	      4.45601989	     -1.27916145	     -7.27159859	     -0.31273496	      1.02593299	      0.31125888	     18.98435064	     -0.26868178	     -2.53580420	    -63.98180923	     -2.25673293	    -14.21926740	     24.37810953	      2.23647341	      3.22935397	      7.47797784	    -23.88301628	    -11.14788687	      0.00000000	      0.00000000	      0.00000000	      0.00000000	      0.00000000	      1.01629288	    -16.14461690	     -2.07362243	      8.23277980
      0.34166667	      4.44444050	     -1.26581155	     -7.15034683	     -0.30752095	      1.02615516	      0.31120690	     19.36499260	     -0.19695718	     -2.59714411	    -63.26519026	     -2.05213508	    -14.20215513	     24.38738092	      1.82842576	      3.27119676	      7.58361731	    -23.66507096	    -11.11684043	      0.00000000	      0.00000000	      0.00000000	      0.00000000	      0.00000000	      1.19085937	    -16.09143761	     -2.11295494	      8.16228002
      0.34583333	      4.72358188	     -1.51414628	     -6.69599373	     -0.30254716	      1.02688816	      0.31045865	     19.32875311	     -0.07860075	     -3.15591159	    -62.42983916	     -1.50590534	    -13.70748753	     24.28040769	      1.13522334	      3.09165637	      8.08930311	    -23.50894755	    -11.10500872	      0.00000000	      0.00000000	      0.00000000	      0.00000000	      0.00000000	      1.28877725	    -16.48772846	     -1.70013971	      7.51195523
      0.35000000	      4.72398736	     -1.51276632	     -6.60411716	     -0.29767755	      1.02700091	      0.31040701	     19.74570992	     -0.01638475	     -3.24318687	    -61.73892486	     -1.31079431	    -13.71560836	     24.26125722	      0.76823783	      3.11583374	      8.16336116	    -23.36179264	    -11.09446267	      0.00000000	      0.00000000	      0.00000000	      0.00000000	      0.00000000	      1.41195599	    -16.50804509	     -1.70492875	      7.46953549
